<?xml version="1.0" standalone="no"?>
<!DOCTYPE svg PUBLIC "-//W3C//DTD SVG 20010904//EN"
 "http://www.w3.org/TR/2001/REC-SVG-20010904/DTD/svg10.dtd">
<svg version="1.0" xmlns="http://www.w3.org/2000/svg"
 width="213.000000pt" height="403.000000pt" viewBox="0 0 213.000000 403.000000"
 preserveAspectRatio="xMidYMid meet">

<g transform="translate(0.000000,403.000000) scale(0.100000,-0.100000)"
fill="#000000" stroke="none">
<path d="M1317 2937 c-56 -39 -53 40 -27 -657 11 -294 20 -541 20 -547 0 -7 9
-13 20 -13 19 0 20 7 21 233 0 127 4 408 8 622 4 215 7 391 6 392 0 1 -22 -12
-48 -30z"/>
<path d="M1438 2288 l-3 -652 -382 -269 -383 -269 0 -519 c0 -285 2 -519 5
-519 3 0 108 72 233 160 125 88 450 316 722 508 l495 348 3 690 2 690 -272
192 c-150 105 -306 214 -345 242 l-73 51 -2 -653z m197 422 l105 -70 0 -140
c0 -77 -4 -140 -8 -140 -5 0 -53 31 -108 68 l-99 68 -3 142 c-1 78 0 142 3
142 3 0 53 -32 110 -70z"/>
<path d="M1163 2829 c-39 -27 -43 -34 -43 -72 1 -97 39 -890 44 -894 3 -3 12
-3 19 0 12 5 16 85 21 484 4 263 10 486 12 496 7 24 -4 21 -53 -14z"/>
<path d="M1008 2722 l-37 -27 5 -65 c2 -36 11 -202 19 -369 9 -168 17 -307 20
-309 2 -2 10 -2 18 1 11 4 15 63 20 299 9 380 9 498 0 498 -5 -1 -25 -13 -45
-28z"/>
</g>
</svg>
